<svg width="984" height="1080" viewBox="0 0 984 1080" fill="none" xmlns="http://www.w3.org/2000/svg">
<g clip-path="url(#clip0_2559_5)">
<rect width="984" height="1080" fill="white"/>
<path d="M634 0C639 0.166668 651.2 2.7 660 11.5C668.8 20.3 671.667 32.8333 672 38C672.032 37.4999 672.088 36.9308 672.171 36.3027C672.059 37.5203 672 38.7534 672 40V88C672 110.091 689.909 128 712 128H946C951 128.167 963.2 130.7 972 139.5C980.8 148.3 983.667 160.833 984 166V1080H0V40C0 17.9086 17.9086 0 40 0H634ZM712 0C710.035 1.0889e-07 708.103 0.144206 706.214 0.417969C707.708 0.163288 708.998 0.0333872 710 0H712Z" fill="black"/>
</g>
<defs>
<clipPath id="clip0_2559_5">
<rect width="984" height="1080" fill="white"/>
</clipPath>
</defs>
</svg>
